<?xml version="1.0" encoding="utf-8"?>
<!-- Generator: Adobe Illustrator 27.1.0, SVG Export Plug-In . SVG Version: 6.00 Build 0)  -->
<svg version="1.1" id="Calque_1" xmlns="http://www.w3.org/2000/svg" xmlns:xlink="http://www.w3.org/1999/xlink" x="0px" y="0px"
	 viewBox="0 0 380 380" style="enable-background:new 0 0 380 380;" xml:space="preserve">
<style type="text/css">
	.st0{display:none;}
	.st1{display:inline;}
	.st2{display:inline;stroke:#000000;stroke-width:20;stroke-miterlimit:10;}
	.st3{display:inline;fill:url(#SVGID_1_);}
	.st4{fill:url(#SVGID_00000105406576351847923610000000722117155923349408_);}
</style>
<g class="st0">
	<path class="st1" d="M257.9,258l-14.5-12.6l8.7-10.6h-23c-20.9,0-38.6-17.6-38.6-38.4v-13.9c0-9.4,4.6-19.4,12.2-26.8
		c7.4-7.1,16.6-10.8,26.1-10.6H349l1.9-7.9L370,143l-6.2,22.1l-135.6,0c-5.4-0.2-9.6,3.1-11.6,5c-3.7,3.6-6.1,8.5-6.1,12.5v13.9
		c0,10,8.5,18.5,18.5,18.5h65.2L257.9,258z"/>
	<path class="st2" d="M70.6,147"/>
	<g class="st1">
		<ellipse cx="235.1" cy="190" rx="8.6" ry="8.5"/>
	</g>
	<path class="st1" d="M190.4,293.4c-49.8-38-67.7-66.1-86.7-95.7c-1.8-2.8-3.6-5.7-5.5-8.5c-21.8-33.7-21.2-70.6,1.5-96.2
		c11.1-12.5,25.7-19.3,41.3-19.3c15.5,0,30.2,6.9,41.3,19.3l8,9.1l8.2-9.4c11.1-12.5,25.8-19.3,41.3-19.3c15.5,0,30.2,6.9,41.3,19.3
		c5.9,6.7,10,14.2,12.3,22.6h20.9c-2.7-13.7-8.8-25.9-18.2-36.4c-15-16.9-35-26.2-56.4-26.2c-18.3,0-35.6,6.8-49.6,19.4
		c-13.9-12.3-31.1-19-49.2-19c-21.4,0-41.4,9.3-56.4,26.2C70.2,95.5,62.3,115.8,62,137.8c-0.3,21.1,6.4,42.8,19.3,62.8
		c1.8,2.8,3.6,5.6,5.4,8.4c19.8,31,40.4,63.1,97.7,105.7l6,4.4l6-4.4c39.6-29.2,68.9-59.9,89.6-93.9l-23.3-4.9
		C244.4,245.9,224.8,267.2,190.4,293.4z"/>
	<path class="st1" d="M375,49.4C318.8,17.1,254.8,0,190,0S61.2,17.1,5,49.4l-5,2.9V58c0,64.6,17.1,128.3,49.6,184.2
		C82,298.2,128.8,344.8,185,377.1l5,2.9l5-2.9c55.6-32,119.3-110.6,152.1-163.1h-24c-31.5,47.6-85.9,113.2-133.2,142.7
		C139.1,326.3,96.7,283.4,67,232.2C37.3,181,21.2,122.9,20.2,63.9c105.3-58.2,234.3-58.2,339.6,0c-0.4,26.5-3.9,53-10.4,78.6
		l19.6,4.9c7.3-29.1,11-59.2,11-89.3v-5.8L375,49.4z"/>
</g>
<g class="st0">
	<linearGradient id="SVGID_1_" gradientUnits="userSpaceOnUse" x1="882.4402" y1="926.7748" x2="454.3955" y2="584.0907">
		<stop  offset="0" style="stop-color:#606AE1"/>
		<stop  offset="0.35" style="stop-color:#DE5BC2"/>
		<stop  offset="0.84" style="stop-color:#E99B61"/>
	</linearGradient>
	<path class="st3" d="M840,656.1c0,28.6-3.4,57.2-10,84.9l0,0l-0.2,0.8c-0.3,1.1-0.5,2.2-0.8,3.3l-0.2,0l-4,13.1l-140.9,0
		c-5.5-0.2-9.6,3.1-11.7,5c-3.7,3.6-6.1,8.5-6.1,12.5v12.9c0,10,8.5,18.5,18.6,18.5h74.4l-35.5,43.3l0,0
		c-17.7,21.5-39.4,41.7-65.7,61.3l-5.9,4.4l-5.9-4.4c-56.7-42.4-77-74.4-96.6-105.3c-1.8-2.8-3.5-5.6-5.3-8.4
		c-12.8-19.9-19.4-41.5-19.1-62.5c0.3-21.9,8.1-42.1,22.5-58.4c14.8-16.8,34.6-26,55.7-26c17.9,0,34.9,6.7,48.7,19
		c13.9-12.5,31-19.3,49-19.3c21.1,0,40.9,9.3,55.7,26.1c9,10.2,14.9,21.9,17.7,35.1h-20.8c-2.3-7.9-6.3-15-11.8-21.3
		c-11-12.4-25.5-19.3-40.8-19.3c-15.4,0-29.9,6.8-40.8,19.3l-8.1,9.3l-8-9c-11-12.4-25.4-19.3-40.8-19.3c-15.4,0-29.9,6.8-40.8,19.3
		c-22.5,25.5-23.1,62.2-1.5,95.8c1.8,2.8,3.6,5.6,5.4,8.5c18.7,29.5,36.5,57.5,85.7,95.4c26.3-20.2,47.5-41.2,64.1-63.5h-31.4
		c-21,0-38.7-17.6-38.7-38.5v-12.9c0-9.5,4.6-19.5,12.3-26.9c7.4-7.1,16.7-10.9,26.1-10.6h125.5l0.5-1.6c5.9-24.4,9-49.5,9.5-74.6
		c-105-58-233.6-58-338.6,0c1,58.8,17.1,116.7,46.7,167.7c29.6,51,71.9,93.8,122.6,124c48.6-30.3,104.7-98.8,135.6-146.5h23.7
		c-31.8,52.2-97.3,134-154.3,166.8l-5,2.9l-5-2.9c-56-32.2-102.7-78.6-135-134.3c-32.3-55.7-49.4-119.2-49.4-183.5v-5.8l5-2.9
		c56-32.2,119.8-49.2,184.4-49.2s128.4,17,184.4,49.2l5,2.9V656.1z M682.3,783.2c0,4.6,3.8,8.4,8.4,8.4c4.7,0,8.4-3.8,8.4-8.4
		s-3.8-8.4-8.4-8.4C686.1,774.8,682.3,778.6,682.3,783.2z"/>
</g>
<linearGradient id="SVGID_00000016771217781812919280000001944352435559379584_" gradientUnits="userSpaceOnUse" x1="52.0062" y1="-134.678" x2="318.9276" y2="327.6434">
	<stop  offset="0" style="stop-color:#606AE1"/>
	<stop  offset="0.35" style="stop-color:#DE5BC2"/>
	<stop  offset="0.84" style="stop-color:#E99B61"/>
</linearGradient>
<path style="fill:url(#SVGID_00000016771217781812919280000001944352435559379584_);" d="M235.1,181.5c4.7,0,8.6,3.8,8.6,8.5
	s-3.8,8.5-8.6,8.5s-8.6-3.8-8.6-8.5S230.4,181.5,235.1,181.5z M189.9,356.7C139.1,326.3,96.7,283.4,67,232.2
	C37.3,181,21.2,122.9,20.2,63.9c105.3-58.2,234.3-58.2,339.6,0c-0.4,26.5-3.9,53-10.4,78.6l0.2,0l-0.6,2.6H228.8
	c-9.4-0.2-18.7,3.5-26.1,10.6c-7.7,7.4-12.2,17.4-12.2,26.8v13.9c0,20.8,17.7,38.4,38.6,38.4h21.1c-15.2,20.8-33,38.3-59.7,58.7
	c-49.8-38-67.7-66.1-86.7-95.7c-1.8-2.8-3.6-5.7-5.5-8.5c-21.8-33.7-21.2-70.6,1.5-96.2c11.1-12.5,25.7-19.3,41.3-19.3
	c15.5,0,30.2,6.9,41.3,19.3l8,9.1l8.2-9.4c11.1-12.5,25.8-19.3,41.3-19.3c15.5,0,30.2,6.9,41.3,19.3c5.9,6.7,10,16.2,12.3,24.6h20.9
	c-2.7-13.7-8.8-27.9-18.2-38.4c-15-16.9-35-26.2-56.4-26.2c-18.3,0-35.6,6.8-49.6,19.4c-13.9-12.3-31.1-19-49.2-19
	c-21.4,0-41.4,9.3-56.4,26.2C70.2,95.5,62.3,115.8,62,137.8c-0.3,21.1,6.4,42.8,19.3,62.8c1.8,2.8,3.6,5.6,5.4,8.4
	c19.8,31,40.4,63.1,97.7,105.7l6,4.4l6-4.4c32-23.6,57.3-48.2,76.8-74.7l21.2-25.1h-65.2c-10.1,0-18.5-8.5-18.5-18.5v-13.9
	c0-4,2.4-8.9,6.1-12.5c2-1.9,6.2-5.2,11.6-5l135.6,0l4.9-17.7l0.1,0c0.3-1.3,0.6-2.6,1-4l0.1-0.4l0,0c6.6-27.8,10-56.3,10-84.9v-5.8
	l-5-2.9C318.8,17.1,254.8,0,190,0S61.2,17.1,5,49.4l-5,2.9V58c0,64.6,17.1,128.3,49.6,184.2C82,298.2,128.8,344.8,185,377.1l5,2.9
	l5-2.9c55.6-32,119.3-110.6,152.1-163.1h-24C291.6,261.6,237.3,327.2,189.9,356.7z"/>
</svg>
